# Blender 4.4.3
# www.blender.org
o Cube
v 1.000000 1.000000 -1.000000
v 1.000000 -1.000000 -1.000000
v 1.000000 1.000000 1.000000
v 1.000000 -1.000000 1.000000
v -1.000000 1.000000 -1.000000
v -1.000000 -1.000000 -1.000000
v -1.000000 1.000000 1.000000
v -1.000000 -1.000000 1.000000
vn -0.0000 1.0000 -0.0000
vn -0.0000 -0.0000 1.0000
vn -1.0000 -0.0000 -0.0000
vn -0.0000 -1.0000 -0.0000
vn 1.0000 -0.0000 -0.0000
vn -0.0000 -0.0000 -1.0000
vt 0.492342 0.672587
vt 0.253121 0.996521
vt 0.252166 0.673861
vt 0.248490 0.664877
vt -0.002072 0.333531
vt 0.249174 0.335169
vt 0.998949 0.665657
vt 0.737441 0.334661
vt 1.000332 0.332223
vt 0.499164 -0.000637
vt 0.249164 0.329618
vt 0.249164 -0.000637
vt 0.499298 0.663873
vt 0.256194 0.333898
vt 0.498071 0.334262
vt 0.733287 0.665768
vt 0.500715 0.332639
vt 0.732065 0.336195
vt 0.499028 1.000342
vt -0.000845 0.665786
vt 0.736058 0.668095
vt 0.499164 0.329618
vt 0.254555 0.667330
vt 0.504802 0.666034
s 0
f 5/1/1 3/2/1 1/3/1
f 3/4/2 8/5/2 4/6/2
f 7/7/3 6/8/3 8/9/3
f 2/10/4 8/11/4 6/12/4
f 1/13/5 4/14/5 2/15/5
f 5/16/6 2/17/6 6/18/6
f 5/1/1 7/19/1 3/2/1
f 3/4/2 7/20/2 8/5/2
f 7/7/3 5/21/3 6/8/3
f 2/10/4 4/22/4 8/11/4
f 1/13/5 3/23/5 4/14/5
f 5/16/6 1/24/6 2/17/6
