# Blender 4.4.3
# www.blender.org
o Cube
v 1.000000 1.000000 -1.000000
v 1.000000 -1.000000 -1.000000
v 1.000000 1.000000 1.000000
v 1.000000 -1.000000 1.000000
v -1.000000 1.000000 -1.000000
v -1.000000 -1.000000 -1.000000
v -1.000000 1.000000 1.000000
v -1.000000 -1.000000 1.000000
vn -0.0000 1.0000 -0.0000
vn -0.0000 -0.0000 1.0000
vn -1.0000 -0.0000 -0.0000
vn -0.0000 -1.0000 -0.0000
vn 1.0000 -0.0000 -0.0000
vn -0.0000 -0.0000 -1.0000
vt 0.356254 0.729210
vt 0.682332 0.482469
vt 0.682332 0.729210
vt 0.350079 0.497875
vt 0.047563 0.723537
vt 0.049710 0.496250
vt 0.356487 0.244203
vt 0.675667 0.485724
vt 0.356487 0.485724
vt 0.358335 0.244666
vt 0.678642 0.003509
vt 0.678642 0.243449
vt 0.985603 0.494993
vt 0.679992 0.726419
vt 0.679878 0.495079
vt 0.363726 0.737516
vt 0.674859 0.972947
vt 0.363726 0.972947
vt 0.356254 0.482469
vt 0.347932 0.725161
vt 0.675667 0.244203
vt 0.361551 -0.000141
vt 0.985717 0.726332
vt 0.674859 0.737516
s 0
f 5/1/1 3/2/1 1/3/1
f 3/4/2 8/5/2 4/6/2
f 7/7/3 6/8/3 8/9/3
f 2/10/4 8/11/4 6/12/4
f 1/13/5 4/14/5 2/15/5
f 5/16/6 2/17/6 6/18/6
f 5/1/1 7/19/1 3/2/1
f 3/4/2 7/20/2 8/5/2
f 7/7/3 5/21/3 6/8/3
f 2/10/4 4/22/4 8/11/4
f 1/13/5 3/23/5 4/14/5
f 5/16/6 1/24/6 2/17/6
